<svg width="120" height="120" fill="none" xmlns="http://www.w3.org/2000/svg"><circle cx="79.191" cy="33.072" r="20.583" transform="rotate(20.426 79.191 33.072)" fill="#FFE55A"/><ellipse opacity=".6" cx="71.542" cy="19.484" rx="3.589" ry="7.538" transform="rotate(64.433 71.542 19.484)" fill="#fff"/><path d="M75.445 28.605c-.025 3.324 3.648 4.464 5.51 1.71m-7.897-6.033c-.007-1.554-1.779-2.1-2.658-.818m17.669 5.011c-.088-1.552-1.887-2.003-2.698-.678" stroke="#CC9B1C" stroke-width="2.08" stroke-linecap="round"/><path d="m92.227 11.334 1.9-3.763a2.132 2.132 0 1 1 3.57 2.292l-2.63 3.294a1.696 1.696 0 0 1-2.84-1.823ZM74.922 7.5l-1.154-4.054a2.132 2.132 0 1 1 4.177-.735l.3 4.204a1.696 1.696 0 0 1-3.323.585Zm-8.08 2.443-1.167-1.857a1.39 1.39 0 1 1 2.492-1.189l.71 2.076a1.134 1.134 0 0 1-2.035.97Zm-6.87 5.906-3.843-2.215a1.901 1.901 0 1 1 2.189-3.089l3.363 2.893a1.484 1.484 0 0 1-1.71 2.41Zm-3.619 8.145-4.194-.62a2 2 0 1 1 .968-3.861l3.99 1.433a1.579 1.579 0 0 1-.764 3.048ZM54.47 37.017l-4.212.482a2 2 0 1 1-.06-3.98l4.226.357a1.579 1.579 0 0 1 .046 3.141Zm3.23 8.806-3.392 1.938a2.168 2.168 0 1 1-1.722-3.952l3.73-1.163a1.743 1.743 0 0 1 1.383 3.177Zm6.372 7.269-1.967 3.375a2.168 2.168 0 1 1-3.468-2.56l2.647-2.874a1.743 1.743 0 0 1 2.788 2.059Zm9.366 4.645-1.31 4.296a1.872 1.872 0 1 1-3.452-1.411l2.076-3.983a1.457 1.457 0 0 1 2.686 1.098Zm9.453 1.217.856 3.92a2.115 2.115 0 1 1-4.181.46l-.017-4.012a1.69 1.69 0 0 1 3.342-.368Zm8.802-4.501 1.981 3.49a2.115 2.115 0 1 1-3.856 1.68l-1.207-3.826a1.69 1.69 0 0 1 3.082-1.344Zm7.731-36.31 2.477-1.826a1.557 1.557 0 1 1 1.572 2.67l-2.799 1.28a1.239 1.239 0 0 1-1.25-2.124ZM84.08 7.344l.508-3.872a1.975 1.975 0 1 1 3.823.91l-1.29 3.686a1.571 1.571 0 0 1-3.04-.724Zm20.66 18.076 4.047-1.18a2.133 2.133 0 1 1 .763 4.172l-4.203.328a1.696 1.696 0 0 1-.607-3.32Zm.481 8.569 3.809.131a1.929 1.929 0 1 1-.526 3.799l-3.701-.909a1.533 1.533 0 0 1 .418-3.021Zm-2.862 8.551 2.421 1.042a1.334 1.334 0 1 1-1.293 2.317l-2.158-1.516a1.062 1.062 0 0 1 1.03-1.843Zm-4.244 7.474 3.069 2.626a1.823 1.823 0 1 1-2.614 2.516l-2.507-3.166a1.43 1.43 0 0 1 2.052-1.976Z" fill="#FFE55A"/><rect x="59.864" y="44.613" width="47.786" height="47.786" rx="23.893" transform="rotate(-7.833 59.864 44.613)" fill="#9D7DF6" stroke="#fff" stroke-width="3.2"/><path d="M88.665 55.081c2.21-.304 3.946.123 5.207 1.28 1.256 1.134 2.064 3.007 2.424 5.62l1.198 8.706c.114.83-.06 1.519-.522 2.069-.437.546-1.095.88-1.975 1.001-.88.121-1.603-.023-2.171-.43-.568-.409-.91-1.028-1.023-1.857l-1.162-8.442c-.173-1.257-.538-2.141-1.095-2.653-.531-.516-1.287-.706-2.267-.572-1.181.163-2.084.671-2.71 1.525-.599.85-.812 1.904-.64 3.16l1.09 7.915c.113.83-.048 1.517-.485 2.064-.437.546-1.095.88-1.974 1.001-.88.121-1.616-.02-2.21-.425-.568-.409-.909-1.028-1.023-1.857l-1.903-13.832c-.107-.779.07-1.443.532-1.993.487-.554 1.158-.89 2.013-1.007.778-.107 1.44.045 1.983.457.564.383.897.94.997 1.668l.073.528a6.58 6.58 0 0 1 2.209-2.647c.982-.673 2.127-1.1 3.434-1.279Z" fill="#fff"/><circle cx="36.516" cy="49.783" r="32.458" transform="rotate(5.362 36.516 49.783)" fill="#FF5D48" stroke="#fff" stroke-width="3.2"/><path d="M38.862 67.408c-2.709.35-5.269.367-7.68.05-2.415-.35-4.435-1.012-6.06-1.988-.563-.31-.991-.656-1.284-1.036-.264-.42-.437-.955-.521-1.606a3.578 3.578 0 0 1 .479-2.363c.464-.722 1.04-1.127 1.725-1.216a2.904 2.904 0 0 1 1.107.066c.39.055.862.203 1.416.445 1.594.735 3.174 1.228 4.74 1.479 1.562.217 3.251.208 5.068-.027 2.263-.292 3.946-.893 5.048-1.802 1.103-.91 1.563-2.067 1.382-3.473-.137-1.063-.814-1.847-2.03-2.352-1.18-.51-3.232-.872-6.153-1.087-3.272-.24-5.928-.699-7.968-1.377-2.005-.682-3.542-1.65-4.61-2.907-1.035-1.26-1.678-2.868-1.93-4.822-.28-2.16.087-4.177 1.1-6.05 1.043-1.913 2.6-3.491 4.67-4.734 2.1-1.282 4.538-2.103 7.315-2.462 4.869-.628 9.037.07 12.506 2.097.567.345.983.727 1.246 1.147.293.38.48.879.56 1.496a3.437 3.437 0 0 1-.531 2.369c-.43.718-.988 1.121-1.674 1.21a3.769 3.769 0 0 1-1.1-.015c-.322-.063-.796-.229-1.423-.496-1.521-.71-2.91-1.21-4.168-1.5-1.223-.296-2.743-.326-4.56-.092-2.092.27-3.684.895-4.778 1.872-1.098.944-1.556 2.118-1.375 3.524.106.823.418 1.48.934 1.97.547.453 1.378.816 2.494 1.09 1.15.27 2.748.5 4.794.688 4.796.427 8.31 1.315 10.54 2.665 2.266 1.346 3.58 3.424 3.943 6.236.283 2.194-.084 4.21-1.101 6.05-.983 1.835-2.529 3.36-4.638 4.573-2.075 1.209-4.57 2.001-7.483 2.378Z" fill="#fff"/><rect x="42.047" y="69.723" width="39.069" height="39.069" rx="19.534" transform="rotate(8.72 42.047 69.723)" fill="#99D04B" stroke="#fff" stroke-width="3.2"/><path d="M64.637 85.71c.738.114 1.287.403 1.648.868.381.469.519 1.051.412 1.747l-1.78 11.61c-.101.653-.414 1.145-.94 1.474-.504.333-1.114.445-1.831.335-.675-.104-1.184-.376-1.526-.817-.343-.441-.465-.978-.368-1.61L60.3 99a4.943 4.943 0 0 1-2.211 1.539c-.845.302-1.763.377-2.754.225-1.962-.301-3.345-1.064-4.15-2.288-.78-1.242-1.003-2.96-.666-5.153l1.12-7.307c.107-.696.402-1.212.885-1.548.505-.333 1.126-.443 1.864-.33.738.113 1.287.403 1.648.868.36.466.487 1.046.38 1.742L55.28 94.15c-.143.928-.058 1.643.254 2.144.332.504.9.818 1.7.94.929.143 1.726-.058 2.392-.604.688-.542 1.11-1.33 1.27-2.363l1.023-6.675c.107-.695.402-1.212.885-1.547.483-.337 1.094-.448 1.832-.335Z" fill="#fff"/></svg>