<svg width="120" height="120" fill="none" xmlns="http://www.w3.org/2000/svg"><path d="m18.49 29.108.933-.468a1.94 1.94 0 0 1 .881-.174c.302.012.595.096.852.244a1.738 1.738 0 0 1 .88 1.431c.312 3.547-.168 9.884-7.674 13.884l-2.477 1.281a.613.613 0 0 1-.527.006.564.564 0 0 1-.31-.405c-.447-2.549-1.463-11.04 7.442-15.8Z" fill="#85BE4C"/><path d="m8.682 37.987.577.444a10.609 10.609 0 0 1 3.748 6.177l.688 3.576" stroke="#99632E" stroke-width="3.142" stroke-miterlimit="10" stroke-linecap="round"/><path d="M28.318 43.483c1.912 4.974 1.926 10.49.038 15.569a6.162 6.162 0 0 1-2.335 3.095 6.371 6.371 0 0 1-3.754 1.14 5.2 5.2 0 0 0-3.677 1.274l-.323.227a6.116 6.116 0 0 1-3.411 1.384 5.908 5.908 0 0 1-3.54-.83c-4.674-2.633-8.262-6.736-10.19-11.652l-.248-.663c-1.839-6.02 2.625-11.808 8.64-11.253l1.52.185a2.574 2.574 0 0 0 2-.75l.884-.982c3.954-4.402 11.067-3.398 13.881 2.15a5.4 5.4 0 0 1 .515 1.106Z" fill="#F5422B"/><path d="M10.065 50.463c1.152-2.392.778-4.893-.834-5.587-1.612-.695-3.842.686-4.98 3.083-1.14 2.398-.769 4.89.834 5.588 1.602.698 3.842-.686 4.98-3.084Z" fill="#FF5F4A"/><path fill-rule="evenodd" clip-rule="evenodd" d="M38.601 49.962a4.274 4.274 0 1 0-8.547 0v1.618a16.86 16.86 0 0 0-9.811-3.126c-10.206 0-17.85 8.918-17.85 19.106 0 10.188 7.644 19.106 17.85 19.106 3.72 0 7.1-1.185 9.893-3.185a4.275 4.275 0 0 0 8.465-.837V49.962ZM10.941 67.56c0-6.195 4.513-10.559 9.302-10.559 4.788 0 9.301 4.364 9.301 10.559 0 6.195-4.513 10.558-9.301 10.558-4.79 0-9.302-4.363-9.302-10.558Z" fill="#FCD652"/><path d="M34.328 45.689v-1.2 1.2Zm-4.274 5.891-.693.98 1.893 1.339V51.58h-1.2Zm.082 31.901 1.177-.234-.363-1.825-1.512 1.084.698.975Zm4.192 3.436v-1.2 1.2Zm0-40.028a3.074 3.074 0 0 1 3.073 3.073h2.4a5.474 5.474 0 0 0-5.473-5.473v2.4Zm-3.074 3.073a3.074 3.074 0 0 1 3.074-3.073v-2.4a5.474 5.474 0 0 0-5.474 5.473h2.4Zm0 1.618v-1.618h-2.4v1.618h2.4Zm-11.011-1.926a15.66 15.66 0 0 1 9.118 2.906l1.386-1.96a18.06 18.06 0 0 0-10.504-3.346v2.4ZM3.593 67.56c0-9.635 7.21-17.906 16.65-17.906v-2.4c-10.974 0-19.05 9.565-19.05 20.306h2.4Zm16.65 17.906c-9.44 0-16.65-8.271-16.65-17.906h-2.4c0 10.741 8.076 20.306 19.05 20.306v-2.4Zm9.195-2.96a15.664 15.664 0 0 1-9.195 2.96v2.4a18.06 18.06 0 0 0 10.592-3.409l-1.398-1.951Zm4.89 3.211a3.075 3.075 0 0 1-3.015-2.47l-2.354.468a5.475 5.475 0 0 0 5.369 4.402v-2.4Zm3.073-3.073a3.074 3.074 0 0 1-3.073 3.073v2.4a5.474 5.474 0 0 0 5.473-5.473h-2.4Zm0-32.682v32.682h2.4V49.962h-2.4Zm-17.158 5.84c-5.537 0-10.502 4.989-10.502 11.758h2.4c0-5.622 4.061-9.358 8.102-9.358v-2.4ZM30.744 67.56c0-6.77-4.964-11.759-10.501-11.759v2.4c4.04 0 8.101 3.737 8.101 9.359h2.4ZM20.243 79.318c5.537 0 10.501-4.989 10.501-11.758h-2.4c0 5.621-4.06 9.358-8.101 9.358v2.4ZM9.74 67.56c0 6.77 4.965 11.758 10.502 11.758v-2.4c-4.04 0-8.102-3.737-8.102-9.358h-2.4Z" fill="#fff"/><g filter="url(#a)"><circle cx="34.399" cy="51.32" r="7.2" transform="rotate(90 34.399 51.32)" fill="#fff"/><path d="m37.248 50.619-2.846 2.74-2.847-2.74" stroke="#85BE4C" stroke-width="2.679" stroke-linecap="round" stroke-linejoin="round"/></g><path fill-rule="evenodd" clip-rule="evenodd" d="M34.465 74.877a1.164 1.164 0 0 1-1.16-1.168v-.148a1.164 1.164 0 0 1 2.328.007v.149a1.164 1.164 0 0 1-1.168 1.16Zm.025-7.552a1.164 1.164 0 0 1-1.16-1.168v-.148a1.164 1.164 0 0 1 2.328.008v.148a1.164 1.164 0 0 1-1.168 1.16Zm.025-7.552a1.164 1.164 0 0 1-1.16-1.168v-.148a1.164 1.164 0 0 1 2.328.008v.148a1.164 1.164 0 0 1-1.168 1.16Z" fill="#fff"/><path d="M34.463 82.525a1.164 1.164 0 0 1-1.16-1.168v-.148a1.164 1.164 0 1 1 2.329.008v.148a1.164 1.164 0 0 1-1.169 1.16Z" fill="#fff"/><path d="M113.134 83.147a1.868 1.868 0 0 1-1.287-.377 3.106 3.106 0 0 1-.999-1.393c-.503-1.28-1.667-2.183-3.965-9.322-.166-1.062.669-2.992 1.602-3.138.934-.147 3.877-2.261 4.044-1.194l2.004 13.233c.165 1.056-.463 2.044-1.399 2.19Z" fill="#EB6E52"/><path d="m98.867 63.188 5.849.654-.016.002a33.581 33.581 0 0 1-4.465 18.442L88.457 74.66c.8-.951 1.695-1.818 2.67-2.587 1.772-1.416 5.863-4.916 7.334-8.016l.406-.87Z" fill="#F08252"/><path d="M93.347 72.54a6.898 6.898 0 0 0-1.4-1.154c-1.294.968-1.774 1.517-1.774 1.517.672.2 1.32.474 1.933.816.889.5 1.68.958 1.68.958a.55.55 0 0 0 .705-.786 14.488 14.488 0 0 0-1.144-1.35Zm-3.424 2.738c-.372-.378-.673-.726-1.129-.999-.58.686-.983 1.163-1.105 1.405 0 0 .547.324 1.099.612.802.42 1.516.805 1.516.805a.522.522 0 0 0 .587-.116.467.467 0 0 0 .128-.273.444.444 0 0 0-.07-.289 12.194 12.194 0 0 0-1.026-1.145Z" fill="#EB6E52"/><path d="M99.409 72.164a17.638 17.638 0 0 0-1.168-1.792c-.667-.925-1.783-1.764-2.8-2.243-1.146 1.104-1.656 1.632-1.925 1.857 1.095.378 2.127.92 3.06 1.607.99.731 1.871 1.4 1.871 1.4a.663.663 0 0 0 .962-.83Z" fill="#D85C41"/><path d="M110.301 58.834c-1.009-1.318-2.17-1.192-3.224-1.104.334.274.614.61.823.989l-3.359 5.824c.93 5.923-1.735 9.434-2.117 9.978l1.585 6.393c7.179-5.934 9.334-9.259 8.405-15.179l-.849-5.407c-.347-.675-.684-.737-1.264-1.494Z" fill="#fff"/><path d="M106.972 83.928c-.603.095-1.089 1.136-1.223 1.03 0 0-.955-2.525-1.064-2.808-.503-1.28-.852-2.123-3.152-9.263-.167-1.061 4.013-8.603 4.947-8.75 0 0 1.394 9.74 1.561 10.802l.773 7.363c.168 1.07-.909 1.48-1.842 1.626Z" fill="#F08252"/><path fill-rule="evenodd" clip-rule="evenodd" d="M104.04 57.253c-5.834 0-10.561 4.728-10.561 10.559 0 5.83 4.727 10.559 10.561 10.559a10.5 10.5 0 0 0 6.618-2.33 4.274 4.274 0 1 1 5.361 6.657 19.048 19.048 0 0 1-11.979 4.22c-10.553 0-19.109-8.553-19.109-19.106s8.556-19.106 19.109-19.106c4.531 0 8.703 1.582 11.979 4.22a4.274 4.274 0 1 1-5.361 6.657 10.5 10.5 0 0 0-6.618-2.33Z" fill="#FCD652" stroke="#fff" stroke-width="2.4" stroke-linecap="round"/><path d="M107.87 51.376c.992-2.65 2.606-4.35 5.203-5.749.781-.42 1.699.184 1.908 1.051.415 1.728 1.204 3.656.887 9.247l-7.998-4.549Z" fill="#FC9358" stroke="#FC9358" stroke-width="1.243"/><path d="M111.053 51.582c-.606-.433-.882-1.227-.612-1.948.495-1.32 1.278-2.721 2.911-3.949.501-.377 1.181-.12 1.369.477.896 2.848 1.319 5.04 1.223 7.174a.912.912 0 0 1-1.456.7l-3.435-2.454Z" fill="#FFEACB" stroke="#FC9358" stroke-width="1.243"/><path d="M117.38 56.381c1.043 3.545-3.437 9.415-8.911 10.296-5.473.88-11.536-3.235-11.693-6.98-.047-1.08.43-1.861 1.376-3.441 1.601-2.668 3.763-6.269 7.537-6.857 3.62-.566 6.638 1.978 9.32 4.244 1.392 1.185 2.09 1.78 2.371 2.738Z" fill="#FC9358"/><path d="M107.961 49.315c.896 2.53.66 5.643-.888 8.444-1.918 3.471-5.317 5.494-8.565 5.444-1.114-1.128-1.815-2.41-1.867-3.651-.047-1.068.418-1.844 1.343-3.387l.033-.055c1.601-2.668 3.763-6.268 7.536-6.857a6.727 6.727 0 0 1 2.408.062Z" fill="#E8694C"/><path d="M96.291 47.963c-1.133 3.978-.174 6.402 1.568 9.42a.79.79 0 0 0 1.17.226l5.625-4.353a.81.81 0 0 0 .105-1.176c-1.867-2.106-2.823-3.404-6.837-4.918-.676-.255-1.433.106-1.63.801Z" fill="#E8694C"/><path d="M97.724 48.983c-.485 2.533-.14 4.512.75 6.656a.724.724 0 0 0 1.3.09c.739-1.227 1.392-2.398 2.462-3.187.434-.32.59-.958.228-1.357-1.1-1.214-1.886-1.768-4.056-2.58a.51.51 0 0 0-.684.378Z" fill="#FFEACB"/><path d="M110.937 61.326s2.191-1.4 7.359-1.992m-7.276 3.148s3.247-1.505 6.09-.894m-11.185.57s-2.527-.612-7.607.507m7.897.618s-3.56-.368-6.047 1.133" stroke="#FFE1D1" stroke-width=".735" stroke-miterlimit="10" stroke-linecap="round"/><path d="m110.03 63.862 1.198-.2.155-.026c1.138-.282 1.599-1.48.948-2.269a4.618 4.618 0 0 0-.569-.57 5.168 5.168 0 0 0-.875-.595 1.374 1.374 0 0 0-1.601.268 5.272 5.272 0 0 0-.69.9 4.675 4.675 0 0 0-.396.832 1.186 1.186 0 0 0 .525 1.45l.015-.002c.392.22.849.295 1.29.212Z" fill="#fff"/><path d="m106.568 64.441 1.197-.2.156-.026c1.134-.281 1.599-1.479.947-2.268a4.827 4.827 0 0 0-.569-.57 5.127 5.127 0 0 0-.874-.595 1.377 1.377 0 0 0-1.602.267 5.166 5.166 0 0 0-.689.9c-.16.263-.293.542-.397.832a1.192 1.192 0 0 0 .525 1.45c.397.224.86.298 1.306.21Z" fill="#fff"/><path d="m109.343 59.641-2.374.397a.552.552 0 0 0-.447.426.554.554 0 0 0 .233.572l.966.645a1.067 1.067 0 0 0 1.445-.241l.705-.924a.555.555 0 0 0 .033-.617.55.55 0 0 0-.561-.258Z" fill="#946050"/><path d="m103.125 59.503.06-.01a.607.607 0 0 0 .499-.699.724.724 0 0 1 .126-.553.734.734 0 0 1 .772-.313.74.74 0 0 1 .47.326.731.731 0 0 1 .106.27.61.61 0 0 0 1.097.236.608.608 0 0 0 .097-.454 1.97 1.97 0 0 0-2.295-1.586 1.973 1.973 0 0 0-1.586 2.295.607.607 0 0 0 .654.488Zm7.269-1.216.06-.01a.607.607 0 0 0 .498-.698.735.735 0 0 1 .127-.553.732.732 0 0 1 .479-.318.74.74 0 0 1 .763.33.731.731 0 0 1 .106.27.61.61 0 0 0 .706.488.606.606 0 0 0 .488-.706 1.97 1.97 0 0 0-2.295-1.586 1.97 1.97 0 0 0-1.586 2.296.607.607 0 0 0 .654.487Z" fill="#543A32"/><path fill-rule="evenodd" clip-rule="evenodd" d="M53.282 33.873a4.274 4.274 0 1 0-8.548 0v48.771a4.274 4.274 0 0 0 8.352 1.281 17.27 17.27 0 0 0 9.749 2.993c10.274 0 18.1-8.842 18.1-19.106 0-10.265-7.826-19.106-18.1-19.106-3.551 0-6.81 1.056-9.553 2.862V33.873Zm0 33.956v-.034c.008-6.11 4.559-10.542 9.553-10.542 4.998 0 9.553 4.44 9.553 10.559 0 6.119-4.555 10.558-9.553 10.558-4.994 0-9.545-4.431-9.553-10.541Z" fill="#FCD652"/><path d="M53.282 33.873h-1.2 1.2Zm-8.548 0h-1.2 1.2Zm0 33.916 1.2.001v-.001h-1.2Zm0 .046h1.2v-.002l-1.2.002Zm0 14.809h1.2-1.2Zm8.352 1.281.673-.993-1.335-.904-.483 1.538 1.145.36Zm.196-32.357h-1.2v2.226l1.86-1.224-.66-1.002Zm0 16.227-1.2-.002v.002h1.2Zm0 .034h-1.2v.002l1.2-.002Zm-4.274-37.03a3.074 3.074 0 0 1 3.074 3.074h2.4a5.474 5.474 0 0 0-5.474-5.474v2.4Zm-3.074 3.074a3.074 3.074 0 0 1 3.074-3.074v-2.4a5.474 5.474 0 0 0-5.474 5.474h2.4Zm0 33.916V33.873h-2.4V67.79h2.4Zm0 .023v-.022l-2.4-.002v.024h2.4Zm0 .021v-.021h-2.4v.024l2.4-.003Zm0 14.81V67.835h-2.4v14.809h2.4Zm3.074 3.074a3.074 3.074 0 0 1-3.074-3.073h-2.4a5.474 5.474 0 0 0 5.474 5.473v-2.4Zm2.933-2.151a3.076 3.076 0 0 1-2.933 2.151v2.4a5.475 5.475 0 0 0 5.223-3.832l-2.29-.72Zm10.894 2.152a16.07 16.07 0 0 1-9.076-2.786l-1.346 1.987a18.47 18.47 0 0 0 10.422 3.199v-2.4Zm16.9-17.906c0 9.688-7.372 17.906-16.9 17.906v2.4c11.02 0 19.3-9.465 19.3-20.306h-2.4Zm-16.9-17.906c9.528 0 16.9 8.218 16.9 17.906h2.4c0-10.84-8.28-20.306-19.3-20.306v2.4ZM53.94 52.57a16.064 16.064 0 0 1 8.894-2.664v-2.4a18.46 18.46 0 0 0-10.213 3.06l1.32 2.004Zm-1.86-18.697v17.695h2.4V33.873h-2.4Zm0 33.922v.034h2.4v-.034h-2.4Zm10.754-11.742c-5.724 0-10.744 5.038-10.753 11.74l2.4.003c.007-5.518 4.09-9.343 8.353-9.343v-2.4Zm10.753 11.759c0-6.712-5.024-11.759-10.753-11.759v2.4c4.267 0 8.353 3.832 8.353 9.359h2.4ZM62.835 79.57c5.729 0 10.753-5.047 10.753-11.758h-2.4c0 5.526-4.086 9.358-8.353 9.358v2.4ZM52.082 67.83c.009 6.703 5.029 11.74 10.753 11.74v-2.4c-4.264 0-8.346-3.825-8.353-9.343l-2.4.004Z" fill="#fff"/><path d="M84.545 79.536c.1.677.16 1.374.16 2.07 0 7.287-5.953 13.24-13.24 13.24-4.777 0-8.958-2.549-11.307-6.371.996 6.31 6.49 11.168 13.08 11.168 7.286 0 13.238-5.952 13.238-13.239a13.26 13.26 0 0 0-1.93-6.868Z" fill="#DD5543"/><path d="M71.467 94.845c7.286 0 13.239-5.952 13.239-13.238a14.2 14.2 0 0 0-.16-2.07c-2.349-3.803-6.53-6.371-11.307-6.371-7.287 0-13.24 5.972-13.24 13.238 0 .697.06 1.394.16 2.07 2.33 3.803 6.53 6.371 11.308 6.371Z" fill="#FF6B48"/><path d="M70.552 78.461c.04-.04.08-.06.1-.1a22.805 22.805 0 0 1 2.15-1.572c1.234 1.413 3.663 1.632 6.47 1.752h.1c.935.04 2.727.12 4.778.418-.22-.339-.478-.657-.737-.996-.04-.04-.08-.08-.1-.12-1.672-.198-3.105-.258-3.901-.298h-.1c-2.807-.12-4.698-.378-5.634-1.294a21.502 21.502 0 0 1 4.639-2.05 14.78 14.78 0 0 0-1.493-.518 21.5 21.5 0 0 0-3.683 1.752c-.24-.637-.22-1.394.06-2.27-.34 0-.697.02-1.036.04-.259 1.016-.219 1.931.14 2.748a25.31 25.31 0 0 0-2.27 1.652c-.16.12-.299.259-.458.398a24.75 24.75 0 0 0-5.037-1.612 14.57 14.57 0 0 0-.816.756c.06.06.14.1.239.12 1.672.318 3.285.796 4.838 1.453a24.067 24.067 0 0 0-2.17 2.349c-1.573-.378-3.484.299-5.475 1.95-.299.26-.617.518-.916.817-.1.518-.179 1.055-.219 1.593l.02.02c2.15-2.35 4.28-3.604 5.913-3.484a24.185 24.185 0 0 0-4.38 10.75c.239.458.518.896.836 1.334a22.879 22.879 0 0 1 4.579-11.806c1.433.777 1.573 3.206 1.752 6.51.02.538.06 1.075.1 1.653.02.219.02.438.04.657.139 2.389.318 5.574 2.308 8.44.439.06.896.12 1.334.14-2.329-2.827-2.528-6.171-2.667-8.64-.02-.22-.02-.458-.04-.657-.04-.558-.06-1.115-.1-1.633-.219-3.444-.358-6.17-2.15-7.266a26.456 26.456 0 0 1 2.19-2.31c2.986 1.454 5.654 3.505 7.764 6.093a22.858 22.858 0 0 1 4.858 10.451c.02.06.04.12.08.18.278-.28.537-.558.796-.857a23.76 23.76 0 0 0-4.977-10.411 23.587 23.587 0 0 0-7.725-6.132Z" fill="#C74235"/><defs><filter id="a" x="25.877" y="42.798" width="17.044" height="17.044" filterUnits="userSpaceOnUse" color-interpolation-filters="sRGB"><feFlood flood-opacity="0" result="BackgroundImageFix"/><feColorMatrix in="SourceAlpha" values="0 0 0 0 0 0 0 0 0 0 0 0 0 0 0 0 0 0 127 0" result="hardAlpha"/><feOffset/><feGaussianBlur stdDeviation=".661"/><feComposite in2="hardAlpha" operator="out"/><feColorMatrix values="0 0 0 0 0 0 0 0 0 0 0 0 0 0 0 0 0 0 0.15 0"/><feBlend in2="BackgroundImageFix" result="effect1_dropShadow_1_10722"/><feBlend in="SourceGraphic" in2="effect1_dropShadow_1_10722" result="shape"/></filter></defs></svg>