<svg width="120" height="120" fill="none" xmlns="http://www.w3.org/2000/svg"><path d="m19.633 61.5 6.05-45.84m39.789 51.891 6.05-45.839m-45.839-6.05 45.84 6.05M19.633 61.5l45.838 6.05" stroke="#fff" stroke-width="15.61" stroke-linecap="round" stroke-linejoin="round"/><path d="m19.633 61.5 6.05-45.84m39.789 51.891 6.05-45.839m-45.839-6.05 45.84 6.05m-51.89 39.789 45.839 6.051" stroke="#D480FF" stroke-width="9.756" stroke-linecap="round" stroke-linejoin="round"/><path d="m19.781 61.069 6.475-48.502" stroke="#fff" stroke-width="2.126" stroke-linecap="round" stroke-linejoin="round" stroke-dasharray="0.07 7.09"/><g filter="url(#a)"><circle cx="25.733" cy="14.816" r="8.381" transform="rotate(97.204 25.733 14.816)" fill="#fff"/><path d="m29.125 14.422-3.687 2.75-2.887-3.58" stroke="#85BE4C" stroke-width="3.037" stroke-linecap="round" stroke-linejoin="round"/></g><path fill-rule="evenodd" clip-rule="evenodd" d="M110.596 96.304a3.915 3.915 0 0 0-1.128-7.132l-.929-5.143c.952-.269 1.563-1.263 1.222-2.265a32.262 32.262 0 0 0-1.818-4.296 29.808 29.808 0 0 0-.876-1.587l-7.13-39.464c-.577-3.198-4.574-4.34-6.754-1.931l-18.045 19.94c-3.614 2.835-9.852 8.38-11.995 13.254l-5.932 6.555a3.914 3.914 0 0 0-4.658 5.599c5.516 10.064 15.69 16.816 26.406 19.775 10.688 2.951 22.564 2.302 31.637-3.305Z" fill="#FF7D65"/><path d="m111.868 90.916 3.072-1.898-3.072 1.898Zm-1.272 5.388-1.899-3.073 1.899 3.073Zm-1.128-7.132-3.555.642a3.613 3.613 0 0 0 2.697 2.867l.858-3.51Zm-.929-5.143-.983-3.476a3.611 3.611 0 0 0-2.572 4.118l3.555-.642Zm1.222-2.265 3.419-1.165-3.419 1.165Zm-1.818-4.296-3.214 1.649 3.214-1.649Zm-.876-1.587-3.555.642c.077.424.228.831.448 1.202l3.107-1.844Zm-7.13-39.464-3.554.642 3.555-.642Zm-6.754-1.931 2.678 2.424-2.678-2.424Zm-18.045 19.94 2.23 2.841c.16-.126.31-.266.448-.418l-2.678-2.423ZM63.143 67.68l2.678 2.424c.26-.288.472-.615.629-.97l-3.307-1.454Zm-5.932 6.555-1.13 3.43a3.612 3.612 0 0 0 3.808-1.007l-2.678-2.423Zm-3.107.285 1.736 3.167-1.736-3.167Zm-1.551 5.314-3.168 1.736 3.168-1.736Zm26.406 19.775-.961 3.481.961-3.481Zm29.836-6.794a.302.302 0 0 1-.098.416l3.798 6.146a7.526 7.526 0 0 0 2.445-10.36l-6.145 3.798Zm-.185-.134a.29.29 0 0 1 .185.135l6.145-3.798a7.51 7.51 0 0 0-4.615-3.355l-1.715 7.018Zm-3.626-8.01.929 5.143 7.109-1.284-.929-5.143-7.109 1.284Zm1.358-1.742c-.391-1.148.373-2.138 1.214-2.376l1.965 6.952c2.745-.776 4.733-3.755 3.659-6.906l-6.838 2.33Zm-1.613-3.812a28.53 28.53 0 0 1 1.613 3.812l6.838-2.33a35.862 35.862 0 0 0-2.023-4.78l-6.428 3.298Zm-.769-1.392c.265.446.522.91.769 1.392l6.428-3.297a33.187 33.187 0 0 0-.984-1.782l-6.213 3.687Zm-7.577-40.666 7.129 39.464 7.109-1.284-7.129-39.464-7.11 1.284Zm-.522-.15c.068-.074.112-.088.135-.094a.333.333 0 0 1 .172.007c.074.02.123.056.15.085.017.017.047.052.065.152l7.109-1.284c-1.111-6.148-8.795-8.345-12.987-3.713l5.356 4.848ZM77.816 56.85l18.045-19.94-5.356-4.847-18.045 19.94 5.356 4.847ZM66.45 69.134c.808-1.838 2.54-4.07 4.732-6.33 2.135-2.203 4.468-4.189 6.186-5.537l-4.46-5.683c-1.896 1.487-4.49 3.692-6.912 6.19-2.366 2.44-4.825 5.416-6.16 8.452l6.614 2.908Zm-6.56 7.525 5.931-6.555-5.356-4.848-5.932 6.555 5.356 4.847Zm-4.05 1.028a.289.289 0 0 1 .24-.022l2.261-6.861a7.516 7.516 0 0 0-5.973.548l3.472 6.335Zm-.12.41a.302.302 0 0 1 .12-.41l-3.472-6.335a7.526 7.526 0 0 0-2.983 10.218l6.335-3.472Zm24.2 18.03c-9.996-2.76-19.253-9.004-24.2-18.03l-6.335 3.473c6.086 11.103 17.179 18.363 28.613 21.52l1.923-6.963Zm28.777-2.895c-8.002 4.945-18.782 5.655-28.776 2.895l-1.923 6.963c11.38 3.143 24.352 2.556 34.497-3.713l-3.798-6.145Z" fill="#fff"/><path d="M93.183 34.486c2.18-2.409 6.177-1.267 6.755 1.93l10.299 57.012c-18.384 10.21-46.69.646-55.927-15.987l38.873-42.955Z" fill="#FDE171"/><path d="M96.915 70.34c-.357-.983.176-2.1 1.218-2.014a6.224 6.224 0 0 1 1.954.515c1.379.596 2.798 1.68 4.157 3.17 1.358 1.492 2.621 3.355 3.699 5.456a32.257 32.257 0 0 1 1.818 4.296c.405 1.188-.532 2.367-1.788 2.335l-4.828-.123a1.892 1.892 0 0 1-1.731-1.246L96.915 70.34Z" fill="#F85A3D"/><path d="M95.23 51.162c3.4-2.24 5.257-5.418 4.15-7.098-1.107-1.68-4.76-1.225-8.158 1.015-3.4 2.24-5.257 5.418-4.15 7.098" stroke="#FFFDC1" stroke-width="2.627" stroke-linecap="round"/><ellipse cx="96.849" cy="81.225" rx="5.391" ry="7.953" transform="rotate(69.382 96.849 81.225)" stroke="#FFFDC1" stroke-width="2.627"/><path d="M55.986 77.953c9.798 17.878 36.725 24.802 52.552 15.022" stroke="#F4B538" stroke-width="7.829" stroke-linecap="round"/><path d="M89.752 69.94c-2.043 7.148-9.522 11.278-16.704 9.225-7.182-2.053-10.69-5.87-10.38-10.186 2.043-7.147 14.838-16.527 15.14-16.441C84.99 54.59 91.795 62.793 89.752 69.94Z" fill="#F85A3D"/><path d="M81.136 69.172c-.967 3.383-4.997 5.198-9 4.053-4.004-1.144-6.878-4.233-5.911-7.616.967-3.383 5.829-5.362 9.832-4.218 4.004 1.145 6.046 4.398 5.079 7.78Z" fill="#FF7D65"/><path fill-rule="evenodd" clip-rule="evenodd" d="M39.11 78.235a15.732 15.732 0 0 1 9.327 8.054 4.8 4.8 0 0 1 .644 1.498 15.727 15.727 0 0 1 .964 6.207c.017.58-.04 1.186-.175 1.797l.013.003-.523 2.656-.006-.002a15.746 15.746 0 0 1-6.776 10.506c-7.24 4.859-17.05 2.928-21.908-4.313a15.746 15.746 0 0 1-2.288-12.29l-.006-.001.402-2.044.032-.159.089-.453.009.002c.099-.425.216-.849.352-1.271 2.667-8.296 11.555-12.858 19.85-10.19ZM27.937 96.937a7.786 7.786 0 0 1-1.325-4.178 7.822 7.822 0 0 1 14.99 2.95 7.822 7.822 0 0 1-13.665 1.229Z" fill="#FFE954"/><path d="m48.437 86.289-1.922.946c.038.077.08.152.127.224l1.795-1.17Zm-9.326-8.054.656-2.04-.656 2.04Zm9.574 8.481-1.906.979 1.906-.979Zm.396 1.07-2.085.496c.02.084.045.167.076.249l2.009-.744Zm.964 6.208-2.14-.102a2.112 2.112 0 0 0-.002.164l2.142-.062Zm-.175 1.797-2.092-.464a2.143 2.143 0 0 0 1.678 2.566l.414-2.102Zm.013.003 2.102.414a2.143 2.143 0 0 0-1.688-2.516l-.414 2.102Zm-.523 2.656-.414 2.102a2.144 2.144 0 0 0 2.516-1.689l-2.102-.413Zm-.006-.002.413-2.102a2.143 2.143 0 0 0-2.527 1.748l2.114.354Zm-6.776 10.506 1.194 1.779-1.194-1.779Zm-21.908-4.313-1.78 1.194 1.78-1.194Zm-2.288-12.29 2.09.474a2.142 2.142 0 0 0-1.676-2.576l-.414 2.102Zm-.006-.001-2.102-.414a2.142 2.142 0 0 0 1.688 2.516l.414-2.102Zm.402-2.044 2.103.414.002-.01-2.105-.404Zm.032-.159 2.1.425.002-.011-2.102-.414Zm.089-.453.414-2.102a2.143 2.143 0 0 0-2.516 1.688l2.102.414Zm.009.002-.414 2.102a2.143 2.143 0 0 0 2.5-1.617l-2.086-.485Zm.352-1.271-2.04-.656 2.04.656Zm7.35 4.334-1.964-.855a2.143 2.143 0 0 0-.177.903l2.142-.048Zm1.326 4.178 1.78-1.194-1.78 1.194Zm1.486-7.543 1.194 1.779-1.194-1.78Zm10.854 2.137 1.779-1.194-1.78 1.194Zm1.325 4.177 1.965.856c.124-.285.184-.593.177-.903l-2.142.047Zm-2.81 3.366 1.193 1.779-1.194-1.78Zm11.568-13.731a17.874 17.874 0 0 0-10.592-9.148l-1.312 4.08a13.59 13.59 0 0 1 8.06 6.96l3.844-1.892Zm.232.395c-.11-.214-.23-.42-.36-.62l-3.59 2.34c.05.076.096.154.138.237l3.812-1.957Zm.575 1.554a6.882 6.882 0 0 0-.575-1.554l-3.812 1.957c.099.193.17.39.217.587l4.17-.99Zm1.019 6.804a17.867 17.867 0 0 0-1.095-7.053l-4.018 1.488c.626 1.692.92 3.512.833 5.361l4.28.204Zm-.224 2.16a9.48 9.48 0 0 0 .226-2.323l-4.284.123c.012.4-.027.829-.125 1.27l4.183.93Zm-1.664-2.564-.014-.003-.827 4.204.013.003.828-4.204Zm1.165 5.172.523-2.656-4.204-.828-.523 2.656 4.204.828Zm-2.522 1.687.006.001.828-4.205h-.007l-.827 4.204Zm-5.168 10.182a17.889 17.889 0 0 0 7.695-11.93l-4.227-.709a13.604 13.604 0 0 1-5.855 9.081l2.387 3.558Zm-24.882-4.898c5.519 8.223 16.659 10.416 24.882 4.898l-2.387-3.558c-6.259 4.199-14.737 2.53-18.936-3.728l-3.559 2.388Zm-2.597-13.957a17.889 17.889 0 0 0 2.597 13.957l3.559-2.388a13.603 13.603 0 0 1-1.977-10.623l-4.18-.947Zm1.67 2.574.005.001.828-4.204-.006-.001-.828 4.204Zm-1.287-4.56-.402 2.044 4.204.828.403-2.044-4.205-.828Zm.034-.17-.036.181 4.209.806.027-.137-4.2-.85Zm.087-.442-.09.453 4.205.828.09-.453-4.205-.828Zm2.525-1.686-.01-.002-.827 4.204.009.002.828-4.204Zm-2.102.175c-.154.478-.287.96-.399 1.441l4.174.972c.085-.368.186-.735.304-1.101l-4.08-1.312Zm22.547-11.574c-9.423-3.03-19.517 2.152-22.547 11.574l4.08 1.312c2.305-7.17 9.985-11.112 17.155-8.806l1.312-4.08ZM24.469 92.807a9.928 9.928 0 0 0 1.688 5.324l3.559-2.388a5.643 5.643 0 0 1-.963-3.031l-4.284.095Zm3.76-5.192a9.928 9.928 0 0 0-3.583 4.289l3.93 1.71a5.643 5.643 0 0 1 2.04-2.441l-2.388-3.558Zm13.826 2.722c-3.067-4.57-9.257-5.789-13.827-2.722l2.388 3.558a5.68 5.68 0 0 1 7.88 1.552l3.559-2.388Zm1.688 5.324a9.928 9.928 0 0 0-1.688-5.324l-3.558 2.388c.628.936.94 1.986.962 3.03l4.284-.094Zm-3.759 5.192a9.93 9.93 0 0 0 3.582-4.29l-3.929-1.71a5.643 5.643 0 0 1-2.04 2.442l2.387 3.558Zm-13.827-2.722c3.067 4.57 9.257 5.788 13.827 2.722l-2.388-3.558a5.68 5.68 0 0 1-7.88-1.552l-3.559 2.388Z" fill="#fff"/><path d="M49.3 98.086c2.668-8.296-1.894-17.183-10.19-19.851-8.295-2.668-17.183 1.894-19.85 10.19-2.668 8.296 1.894 17.183 10.19 19.851 8.295 2.668 17.183-1.894 19.85-10.19ZM24.948 90.73c.98-3.047 8.445-5.927 11.492-4.947 3.047.98 8.64 7.047 7.66 10.094-.98 3.047-9.67 9.586-12.717 8.606-3.048-.98-7.415-10.706-6.435-13.753Z" fill="#FFD951"/><path fill="#FFBE5D" d="m18.899 89.694 7.967 1.569-.523 2.656-7.967-1.569zm23.017 4.531 7.967 1.569-.523 2.656-7.967-1.569z"/><path fill-rule="evenodd" clip-rule="evenodd" d="M46.892 87.045c4.859 7.241 2.928 17.05-4.314 21.909-7.24 4.859-17.05 2.928-21.908-4.313-4.86-7.241-2.928-17.05 4.313-21.91 7.24-4.858 17.05-2.927 21.909 4.314Zm-17.47 2.349a7.822 7.822 0 0 1 8.717 12.99 7.822 7.822 0 1 1-8.717-12.99Z" fill="#FFBE5D"/><path fill-rule="evenodd" clip-rule="evenodd" d="M39.05 79.271c1.268.408 2.33 1.104 3.075 1.938 1.097 1.228 2.996 2.702 4.47 3.438a4.708 4.708 0 0 1 2.09 2.07c.416.81.576 1.686.508 2.533a5.61 5.61 0 0 0 .406 2.58c.547 1.313.618 2.991.08 4.662-.504 1.57-1.45 2.832-2.567 3.599-1.041.716-2.025 1.85-2.615 2.967-.61 1.154-1.713 2.241-3.165 2.987-1.174.602-2.395.889-3.504.883a4.985 4.985 0 0 0-2.592.743c-1.54.947-3.664 1.207-5.755.534-1.892-.608-3.36-1.852-4.141-3.319a3.982 3.982 0 0 0-1.33-1.483c-1.23-.793-2.327-1.985-3.098-3.487-.988-1.925-1.25-3.989-.871-5.752a3.814 3.814 0 0 0-.007-1.613 7.758 7.758 0 0 1-.048-2.945c.271-1.596.975-2.961 1.892-3.876.906-.904 1.713-2.22 2.238-3.388.51-1.134 1.553-2.142 2.924-2.846 1.387-.712 2.83-.97 4.058-.708 1.37.291 3.128.49 4.503.23 1.05-.2 2.25-.132 3.45.253Zm-8.977 6.812a7.822 7.822 0 1 1 8.717 12.99 7.822 7.822 0 0 1-8.717-12.99Z" fill="#F86BA2"/><path fill-rule="evenodd" clip-rule="evenodd" d="M44.137 102.721a.902.902 0 0 1-.824.974l-1.42.119a.902.902 0 1 1-.15-1.798l1.42-.119a.902.902 0 0 1 .974.824Zm-20.657-2.575a.902.902 0 0 1-.74-1.039l.235-1.404a.902.902 0 1 1 1.78.299l-.236 1.404a.902.902 0 0 1-1.04.74Zm6.276-18.27a.902.902 0 0 1-1.138.575l-1.353-.445a.902.902 0 1 1 .563-1.714l1.353.445a.9.9 0 0 1 .575 1.139Z" fill="#F7E6DB"/><path fill-rule="evenodd" clip-rule="evenodd" d="M25.991 84.668a.902.902 0 0 1 1.155.543l.525 1.454a.902.902 0 1 1-1.698.612l-.524-1.454a.902.902 0 0 1 .542-1.155Zm15.841-.026a.902.902 0 0 1 1.155.543l.525 1.454a.902.902 0 0 1-1.698.612l-.524-1.454a.902.902 0 0 1 .542-1.155Zm-5.209 19.972c.458.197.67.728.473 1.186l-.563 1.308a.903.903 0 0 1-1.658-.713l.563-1.308a.903.903 0 0 1 1.185-.473Z" fill="#EC3F84"/><path fill-rule="evenodd" clip-rule="evenodd" d="M24.906 91.431a.902.902 0 0 1-.825.973l-1.541.127a.902.902 0 1 1-.147-1.799l1.54-.126a.902.902 0 0 1 .973.826Zm13.39-10.396a.902.902 0 0 1 .294 1.242l-.811 1.316a.902.902 0 1 1-1.536-.947l.811-1.316a.902.902 0 0 1 1.242-.295Zm9.431 14.014a.902.902 0 0 1 .295 1.241l-.811 1.316a.902.902 0 1 1-1.536-.947l.811-1.316a.902.902 0 0 1 1.242-.294Z" fill="#5EE4E9"/><path fill-rule="evenodd" clip-rule="evenodd" d="M32.849 102.211a.902.902 0 0 1-.39 1.215l-1.762.904a.901.901 0 1 1-.824-1.605l1.761-.904a.902.902 0 0 1 1.215.39ZM45.787 90.97a.902.902 0 0 1-1.14.576l-1.352-.445a.902.902 0 0 1 .564-1.714l1.353.445c.473.155.73.665.575 1.139Z" fill="#FFE954"/><defs><filter id="a" x="15.852" y="4.935" width="19.761" height="19.761" filterUnits="userSpaceOnUse" color-interpolation-filters="sRGB"><feFlood flood-opacity="0" result="BackgroundImageFix"/><feColorMatrix in="SourceAlpha" values="0 0 0 0 0 0 0 0 0 0 0 0 0 0 0 0 0 0 127 0" result="hardAlpha"/><feOffset/><feGaussianBlur stdDeviation=".749"/><feComposite in2="hardAlpha" operator="out"/><feColorMatrix values="0 0 0 0 0 0 0 0 0 0 0 0 0 0 0 0 0 0 0.15 0"/><feBlend in2="BackgroundImageFix" result="effect1_dropShadow_1_9665"/><feBlend in="SourceGraphic" in2="effect1_dropShadow_1_9665" result="shape"/></filter></defs></svg>