<svg width="120" height="120" fill="none" xmlns="http://www.w3.org/2000/svg"><path fill-rule="evenodd" clip-rule="evenodd" d="M63.01 10.6a4.917 4.917 0 0 1 5.565-4.231l17.116 2.24c7.975 1.044 13.056 8.604 12.044 16.336a15.066 15.066 0 0 1-4.124 8.54c2.614 3.302 3.893 7.685 3.31 12.133-1.095 8.37-8.504 14.826-17.082 13.703l-17.887-2.342a4.917 4.917 0 0 1-4.29-5.52l5.349-40.86Zm5.041 37.26 13.064 1.71c2.64.346 5.59-1.675 6.056-5.229.465-3.554-1.865-6.265-4.506-6.611l-.65-.085-.123-.016-12.291-1.609-1.55 11.84Zm2.826-21.59 12.352 1.616c2.028.229 4.378-1.336 4.756-4.218.38-2.91-1.529-5.04-3.57-5.308l-12.292-1.609-1.246 9.518Z" fill="#62CAEB"/><path d="m68.524 6.362.156-1.19-.156 1.19Zm-5.513 4.237 1.19.156-1.19-.156Zm5.564-4.23-.168 1.188.012.002.156-1.19Zm17.116 2.24-.156 1.19.156-1.19Zm7.92 24.877-.86-.837a1.2 1.2 0 0 0-.08 1.582l.94-.745ZM61.952 56.979l.156-1.19-.013-.001-.143 1.191Zm-4.29-5.52-1.19-.156 1.19.156Zm10.389-3.599-1.19-.156a1.2 1.2 0 0 0 1.034 1.346l.156-1.19Zm13.965-10.215.155-1.19-.01-.001-.145 1.19ZM69.6 36.02l.156-1.19a1.2 1.2 0 0 0-1.346 1.035l1.19.155Zm13.628-8.134-.156 1.19.021.002.135-1.192Zm-12.352-1.617-1.19-.156a1.2 1.2 0 0 0 1.035 1.346l.155-1.19Zm13.537-7.909.156-1.19-.156 1.19Zm-12.29-1.609.155-1.19a1.2 1.2 0 0 0-1.346 1.034l1.19.156ZM68.68 5.172a6.117 6.117 0 0 0-6.86 5.271l2.38.312a3.717 3.717 0 0 1 4.168-3.203l.312-2.38Zm.063.009a6.005 6.005 0 0 0-.063-.009l-.312 2.38.039.005.336-2.376ZM85.847 7.42 68.73 5.179l-.312 2.38 17.116 2.24.312-2.38ZM98.925 25.1c1.088-8.312-4.373-16.54-13.078-17.68l-.312 2.38c7.244.947 11.947 7.839 11.01 14.989l2.38.311Zm-4.454 9.223a16.266 16.266 0 0 0 4.454-9.223l-2.38-.311a13.866 13.866 0 0 1-3.794 7.86l1.72 1.674Zm3.64 11.45c.625-4.77-.746-9.479-3.56-13.032l-1.88 1.49c2.413 3.048 3.6 7.108 3.06 11.23l2.38.312ZM79.684 60.511c9.309 1.218 17.257-5.787 18.429-14.738l-2.38-.311c-1.02 7.79-7.89 13.696-15.737 12.669l-.312 2.38Zm-17.886-2.342 17.886 2.342.312-2.38-17.887-2.341-.311 2.38Zm-.053-.006.065.008.286-2.383a2.973 2.973 0 0 1-.04-.005l-.312 2.38Zm-5.272-6.86a6.117 6.117 0 0 0 5.271 6.86l.312-2.38a3.717 3.717 0 0 1-3.203-4.168l-2.38-.312Zm5.349-40.86-5.349 40.86 2.38.312 5.349-40.86-2.38-.312ZM81.27 48.38l-13.064-1.71-.312 2.38 13.065 1.71.311-2.38Zm4.71-4.194c-.386 2.948-2.776 4.447-4.71 4.194l-.311 2.38c3.347.438 6.856-2.103 7.4-6.263l-2.379-.311Zm-3.47-5.266c1.933.253 3.857 2.317 3.471 5.266l2.38.311c.544-4.16-2.193-7.519-5.54-7.957l-.311 2.38Zm-.65-.085.65.085.311-2.38-.65-.085-.311 2.38Zm-.124-.016.134.017.29-2.382-.112-.014-.312 2.38Zm-12.29-1.609 12.29 1.61.312-2.38-12.291-1.61-.312 2.38Zm-.205 10.806 1.55-11.84-2.38-.311-1.55 11.84 2.38.31Zm14.144-21.32L71.033 25.08l-.311 2.38 12.351 1.617.312-2.38Zm3.41-3.184c-.298 2.276-2.095 3.332-3.431 3.182l-.27 2.384c2.721.307 5.624-1.766 6.08-5.254l-2.38-.312Zm-2.536-3.962c1.34.175 2.837 1.663 2.536 3.962l2.38.312c.46-3.522-1.86-6.295-4.605-6.654l-.311 2.38Zm-12.292-1.61 12.293 1.61.311-2.38-12.291-1.609-.312 2.38Zm.1 8.484 1.246-9.518-2.38-.312-1.246 9.518 2.38.312Z" fill="#fff"/><path fill-rule="evenodd" clip-rule="evenodd" d="M95.954 72.441c3.634.61 6.2 2.535 7.584 5.331a3.944 3.944 0 0 0 7.068-3.499c-2.603-5.26-7.439-8.617-13.345-9.61-5.189-.871-10.222.247-14.233 3.385-3.984 3.117-6.607 7.947-7.606 13.892-.999 5.945-.097 11.366 2.649 15.614 2.765 4.277 7.157 6.978 12.346 7.85 5.906.992 11.574-.601 15.753-4.721a3.944 3.944 0 0 0-5.537-5.617c-2.221 2.19-5.276 3.17-8.91 2.56-3.223-.541-5.582-2.116-7.029-4.354-1.466-2.267-2.238-5.6-1.494-10.026.743-4.425 2.562-7.323 4.688-8.987 2.1-1.642 4.843-2.36 8.066-1.818Z" fill="#D480FF" stroke="#fff" stroke-width="2.4" stroke-linecap="round" stroke-linejoin="round"/><path fill-rule="evenodd" clip-rule="evenodd" d="M7.316 90.319a6.759 6.759 0 1 0 12.822 4.28l3.48-10.425c.07-.005.14-.01.21-.017l28.588-2.725 5.394 9.59a6.76 6.76 0 1 0 11.782-6.627L39.446 30.79a6.762 6.762 0 0 0-11.728-.84 6.78 6.78 0 0 0-.87 1.864L7.316 90.319ZM34.92 50.32 28.3 70.15l16.868-1.608L34.92 50.321Z" fill="#FCD652"/><path d="m11.586 98.87.38-1.138-.38 1.138Zm-4.27-8.551-1.139-.38 1.139.38Zm12.822 4.28L19 94.22l1.138.38Zm3.48-10.425-.077-1.198a1.2 1.2 0 0 0-1.06.818l1.138.38Zm28.798-2.742 1.046-.588a1.2 1.2 0 0 0-1.16-.607l.114 1.195Zm5.394 9.59 1.045-.589-1.045.589Zm9.204 2.578.588 1.046-.588-1.046Zm2.578-9.205 1.046-.588-1.046.588ZM39.446 30.79l-1.084.516a.818.818 0 0 0 .038.072l1.046-.588Zm-3.961-3.503-.38 1.139.38-1.139Zm-7.767 2.663.997.667.002-.002-1-.665Zm-.87 1.864 1.138.38A1.07 1.07 0 0 0 28 32.15l-1.152-.337ZM34.92 50.32l1.047-.588a1.2 1.2 0 0 0-2.185.208l1.139.38ZM28.3 70.15l-1.138-.38a1.2 1.2 0 0 0 1.252 1.575L28.3 70.15Zm16.868-1.608.114 1.195a1.2 1.2 0 0 0 .932-1.783l-1.046.588Zm-33.202 29.19a5.56 5.56 0 0 1-3.512-7.033l-2.277-.76a7.958 7.958 0 0 0 5.03 10.069l.76-2.276ZM19 94.219a5.56 5.56 0 0 1-7.034 3.513l-.76 2.276a7.959 7.959 0 0 0 10.07-5.029L19 94.22Zm3.48-10.425L19 94.219l2.276.76 3.481-10.425-2.277-.76Zm1.234-.832c-.058.006-.115.01-.173.014l.155 2.395c.082-.005.164-.012.245-.02l-.227-2.389Zm28.589-2.725-28.59 2.725.229 2.39 28.588-2.726-.227-2.389Zm6.552 10.196-5.393-9.59-2.092 1.177 5.394 9.59 2.091-1.177Zm7.57 2.12a5.56 5.56 0 0 1-7.57-2.12l-2.091 1.177a7.96 7.96 0 0 0 10.838 3.036l-1.176-2.092Zm2.121-7.57a5.56 5.56 0 0 1-2.12 7.57l1.176 2.093a7.959 7.959 0 0 0 3.036-10.839l-2.092 1.176ZM38.4 31.378l30.146 53.605 2.092-1.176-30.146-53.605-2.092 1.176Zm-3.295-2.953a5.539 5.539 0 0 1 3.258 2.881l2.166-1.033a7.939 7.939 0 0 0-4.664-4.124l-.76 2.276Zm-6.388 2.19a5.562 5.562 0 0 1 6.388-2.19l.76-2.276a7.962 7.962 0 0 0-9.146 3.136l1.998 1.33ZM28 32.15c.158-.543.399-1.06.715-1.534l-1.995-1.334a7.978 7.978 0 0 0-1.024 2.194L28 32.15ZM8.454 90.699l19.532-58.505-2.276-.76L6.177 89.939l2.277.76ZM33.782 49.94l-6.62 19.83 2.277.76 6.62-19.83-2.277-.76Zm-5.368 21.405 16.868-1.608-.228-2.39-16.868 1.609.228 2.389Zm17.8-3.391L35.967 49.733l-2.092 1.177 10.247 18.22 2.092-1.176Z" fill="#fff"/><path fill-rule="evenodd" clip-rule="evenodd" d="M19.661 77.764c-.292-3.065 2.036-5.794 5.199-6.096l19.89-1.896.473-.044a1.274 1.274 0 0 0 .856-2.088c3.163-.302 9.206 11.853 8.196 14.484 0 0-.308-2.331-3.143-1.76l-2.584.246-22.63 2.158c-3.163.301-5.964-1.94-6.257-5.004Z" fill="#CADDEB"/><path d="M55.536 84.333 45.723 66.94l5.115-5.315 11.718 19.108-7.02 3.601Z" fill="#FCD652"/><path fill-rule="evenodd" clip-rule="evenodd" d="M30.774 77.176a1.164 1.164 0 0 1 1.041-1.275l.148-.015a1.164 1.164 0 0 1 .233 2.316l-.147.015a1.164 1.164 0 0 1-1.275-1.041Zm7.514-.757a1.164 1.164 0 0 1 1.041-1.275l.148-.015a1.164 1.164 0 1 1 .233 2.316l-.148.015a1.164 1.164 0 0 1-1.274-1.041Zm7.514-.757a1.164 1.164 0 0 1 1.04-1.275l.148-.015a1.164 1.164 0 0 1 .234 2.316l-.148.015a1.164 1.164 0 0 1-1.274-1.041Z" fill="#fff"/><g filter="url(#a)"><circle cx="25.649" cy="77.994" r="8.714" transform="rotate(-4.337 25.65 77.994)" fill="#fff"/><path d="m24.542 74.62 3.569 3.185-3.048 3.686" stroke="#85BE4C" stroke-width="3.242" stroke-linecap="round" stroke-linejoin="round"/></g><defs><filter id="a" x="15.335" y="67.68" width="20.629" height="20.629" filterUnits="userSpaceOnUse" color-interpolation-filters="sRGB"><feFlood flood-opacity="0" result="BackgroundImageFix"/><feColorMatrix in="SourceAlpha" values="0 0 0 0 0 0 0 0 0 0 0 0 0 0 0 0 0 0 127 0" result="hardAlpha"/><feOffset/><feGaussianBlur stdDeviation=".8"/><feComposite in2="hardAlpha" operator="out"/><feColorMatrix values="0 0 0 0 0 0 0 0 0 0 0 0 0 0 0 0 0 0 0.15 0"/><feBlend in2="BackgroundImageFix" result="effect1_dropShadow_1_10483"/><feBlend in="SourceGraphic" in2="effect1_dropShadow_1_10483" result="shape"/></filter></defs></svg>